<svg width="234" height="17" viewBox="0 0 234 17" fill="none" xmlns="http://www.w3.org/2000/svg">
<path d="M4.5 14.5C9.16027 -0.41286 13.8205 -1.42613 18.4808 11.4602C18.8142 12.382 20.1858 12.382 20.5192 11.4602C24.8397 -0.486727 29.1603 -0.486727 33.4808 11.4602C33.8142 12.382 35.1858 12.382 35.5192 11.4602C39.8397 -0.486727 44.1603 -0.486727 48.4808 11.4602C48.8142 12.382 50.1858 12.382 50.5192 11.4602C54.8397 -0.486727 59.1603 -0.486727 63.4808 11.4602C63.8142 12.382 65.1858 12.382 65.5192 11.4602C69.8397 -0.486727 74.1603 -0.486727 78.4808 11.4602C78.8142 12.382 80.1858 12.382 80.5192 11.4602C84.8397 -0.486727 89.1603 -0.486727 93.4808 11.4602C93.8142 12.382 95.1858 12.382 95.5192 11.4602C99.8397 -0.486727 104.16 -0.486727 108.481 11.4602C108.814 12.382 110.186 12.382 110.519 11.4602C114.84 -0.486727 119.16 -0.486727 123.481 11.4602C123.814 12.382 125.186 12.382 125.519 11.4602C129.84 -0.486727 134.16 -0.486727 138.481 11.4602C138.814 12.382 140.186 12.382 140.519 11.4602C144.84 -0.486727 149.16 -0.486727 153.481 11.4602C153.814 12.382 155.186 12.382 155.519 11.4602C159.84 -0.486727 164.16 -0.486727 168.481 11.4602C168.814 12.382 170.186 12.382 170.519 11.4602C174.84 -0.486727 179.16 -0.486727 183.481 11.4602C183.814 12.382 185.186 12.382 185.519 11.4602C189.84 -0.486727 194.16 -0.486727 198.481 11.4602C198.814 12.382 200.186 12.382 200.519 11.4602C204.84 -0.486727 209.16 -0.486727 213.481 11.4602C213.814 12.382 215.186 12.382 215.519 11.4602C220.179 -1.42613 224.84 -0.41286 229.5 14.5" stroke="#CF8E18" stroke-width="3"/>
</svg>
