<svg width="21" height="20" viewBox="0 0 21 20" fill="none" xmlns="http://www.w3.org/2000/svg">
<path d="M20.1573 10.2223C20.1573 9.40007 20.0915 8.80007 19.9492 8.17786H10.6971V11.8889H16.1279C16.0185 12.8112 15.4272 14.2001 14.1133 15.1333L14.0949 15.2576L17.0202 17.5573L17.2229 17.5779C19.0842 15.8334 20.1573 13.2667 20.1573 10.2223Z" fill="#4285F4"/>
<path d="M10.6971 19.9999C13.3577 19.9999 15.5914 19.1109 17.2229 17.5777L14.1133 15.1332C13.2811 15.722 12.1643 16.1332 10.6971 16.1332C8.09122 16.1332 5.8795 14.3888 5.09108 11.9777L4.97551 11.9876L1.9337 14.3765L1.89392 14.4887C3.51439 17.7554 6.84296 19.9999 10.6971 19.9999Z" fill="#34A853"/>
<path d="M5.09091 11.9774C4.88288 11.3552 4.76248 10.6885 4.76248 9.99961C4.76248 9.31067 4.88288 8.64403 5.07996 8.02182L5.07445 7.8893L1.99452 5.46204L1.89375 5.51068C1.22588 6.86625 0.842651 8.3885 0.842651 9.99961C0.842651 11.6107 1.22588 13.1329 1.89375 14.4885L5.09091 11.9774Z" fill="#FBBC05"/>
<path d="M10.6971 3.86676C12.5475 3.86676 13.7957 4.67787 14.5074 5.35569L17.2885 2.60012C15.5805 0.989015 13.3577 0.00012207 10.6971 0.00012207C6.84296 0.00012207 3.51439 2.24455 1.89392 5.51119L5.08013 8.02233C5.8795 5.61123 8.09122 3.86676 10.6971 3.86676Z" fill="#EB4335"/>
</svg>
