<svg width="265" height="38" viewBox="0 0 265 38" fill="none" xmlns="http://www.w3.org/2000/svg">
<path d="M0.82619 37L16.8582 0.999997H26.9382L43.0182 37H33.3222L29.7702 28.648H13.6902L10.0902 37H0.82619ZM17.1462 20.584H26.3622L21.8022 9.784L17.1462 20.584ZM46.0501 37V0.999997H65.8741C73.6501 0.999997 79.1221 5.608 79.1221 12.952C79.1221 17.608 76.4341 21.208 72.1141 22.984L83.2981 37H72.5461L62.8501 24.904H55.0741V37H46.0501ZM55.0741 17.032H65.6821C68.3221 17.032 69.8581 15.448 69.8581 12.952C69.8581 10.456 68.2261 8.872 65.5381 8.872H55.0741V17.032ZM94.5462 37V9.112H82.1142V0.999997H116.098V9.112H103.618V37H94.5462ZM136.721 27.784C133.121 27.784 130.001 26.68 127.505 24.808C128.705 28.456 133.121 29.944 138.401 29.944C143.825 29.944 148.529 27.88 150.161 22.936L159.041 25.144C156.017 34.024 147.761 37.624 138.449 37.624C126.497 37.624 118.865 32.296 118.865 23.608C118.865 21.832 119.297 19.912 120.257 18.232C119.825 17.032 119.633 15.736 119.633 14.392C119.633 7.048 126.785 0.375999 138.881 0.375999C148.337 0.375999 155.009 3.88 157.793 10.696L148.961 13.576C147.425 9.64 144.065 7.768 138.833 7.768C133.937 7.768 129.905 9.4 128.465 12.472C131.105 10.936 133.985 10.36 136.865 10.36C143.537 10.36 147.857 13.768 147.857 19.096C147.857 24.328 143.345 27.784 136.721 27.784ZM129.425 18.808C131.057 20.488 133.745 21.208 136.145 21.208C138.449 21.208 139.745 20.44 139.745 19.048C139.745 17.608 138.449 16.84 136.145 16.84C133.553 16.84 131.105 17.56 129.425 18.808ZM162.969 37V0.999997H172.665L184.617 15.256L196.233 0.999997H205.929V37H197.193V12.088L185.481 26.296H183.465L171.753 12.472V37H162.969ZM213.864 37V0.999997H222.936V37H213.864ZM243.541 37.624C232.645 37.624 226.933 34.504 226.933 28.744C226.933 23.896 232.021 20.776 239.365 20.776C244.693 20.776 250.837 22.6 252.805 26.872L244.309 29.272C243.541 27.736 242.149 27.064 239.605 27.064C237.205 27.064 235.909 27.688 235.909 28.696C235.909 30.088 238.213 30.76 243.445 30.76C250.597 30.76 255.637 28.792 255.637 25.528C255.637 23.416 253.957 21.784 248.437 20.728L240.325 19.192C233.125 17.848 229.861 15.256 229.861 10.504C229.861 4.264 236.773 0.375999 245.893 0.375999C255.013 0.375999 260.533 3.448 262.597 9.016L253.573 11.08C252.469 8.488 249.733 7.384 245.797 7.384C241.045 7.384 239.413 8.536 239.413 9.928C239.413 11.08 240.325 11.56 243.349 12.136L250.357 13.384C260.053 15.256 264.805 18.52 264.805 25.192C264.805 33.448 255.109 37.624 243.541 37.624Z" fill="#9A1105"/>
</svg>
